<?xml version="1.0" standalone="no"?>
<!DOCTYPE svg PUBLIC "-//W3C//DTD SVG 20010904//EN"
 "http://www.w3.org/TR/2001/REC-SVG-20010904/DTD/svg10.dtd">
<svg version="1.0" xmlns="http://www.w3.org/2000/svg"
 width="356.000000pt" height="205.000000pt" viewBox="0 0 356.000000 205.000000"
 preserveAspectRatio="xMidYMid meet">

<g transform="translate(0.000000,205.000000) scale(0.100000,-0.100000)"
fill="#ffffff" stroke="none">
<path d="M2900 1758 c-184 -105 -528 -300 -765 -433 -791 -446 -760 -427 -796
-498 -12 -23 -33 -84 -46 -136 -52 -206 -150 -350 -282 -413 -58 -28 -78 -33
-167 -36 -173 -7 -292 34 -381 132 -66 74 -94 147 -100 266 -5 95 -20 140 -47
140 -21 0 -26 -23 -26 -109 0 -149 52 -289 140 -379 96 -98 230 -146 405 -146
94 0 120 4 177 26 104 39 173 86 252 169 84 89 149 211 191 359 14 52 35 106
46 121 13 19 82 55 251 132 806 366 1110 507 1159 540 127 84 242 223 309 373
31 68 35 85 23 83 -5 0 -159 -86 -343 -191z"/>
<path d="M2930 1304 c-41 -20 -115 -53 -165 -73 -178 -75 -178 -75 -219 -148
-20 -37 -35 -70 -34 -73 5 -13 258 77 315 112 59 35 163 139 188 188 20 39 10
38 -85 -6z"/>
<path d="M578 1041 c-31 -10 -72 -28 -92 -40 -33 -20 -41 -21 -89 -11 -30 6
-70 20 -90 30 -20 11 -41 20 -47 20 -5 0 -1 -24 10 -52 25 -69 105 -144 184
-176 32 -12 111 -32 175 -43 144 -24 169 -32 230 -74 l49 -34 53 61 c161 183
169 195 169 248 0 80 -5 84 -57 44 -64 -49 -83 -51 -145 -16 -106 61 -242 77
-350 43z"/>
<path d="M2180 975 c-91 -40 -232 -102 -315 -138 -98 -42 -151 -71 -153 -82
-4 -20 -31 -27 258 67 118 39 232 79 253 90 66 33 171 140 135 137 -7 -1 -87
-34 -178 -74z"/>
<path d="M2670 944 c-36 -13 -111 -41 -168 -61 -100 -35 -104 -38 -154 -100
-28 -35 -48 -67 -44 -70 12 -12 163 28 236 64 52 25 95 57 143 104 60 60 81
90 60 88 -5 0 -37 -11 -73 -25z"/>
<path d="M1965 694 c-349 -125 -405 -146 -405 -156 0 -5 8 -7 18 -4 9 3 114
28 232 56 118 28 238 61 265 75 52 25 140 105 115 104 -8 0 -109 -34 -225 -75z"/>
<path d="M1058 663 c-32 -25 -58 -52 -58 -59 0 -7 17 -26 38 -43 l38 -30 27
57 c23 51 34 122 18 122 -3 0 -32 -21 -63 -47z"/>
<path d="M550 672 c0 -6 4 -13 9 -16 5 -3 12 -21 15 -41 5 -24 18 -43 44 -62
20 -16 44 -36 52 -46 14 -17 18 -15 55 33 22 28 41 54 43 59 2 5 -41 24 -95
41 -54 18 -104 35 -110 38 -7 2 -13 -1 -13 -6z"/>
<path d="M2285 598 c-107 -29 -112 -31 -172 -91 -35 -34 -59 -65 -55 -69 14
-14 165 18 218 46 58 30 68 39 112 89 34 40 40 58 20 56 -7 0 -62 -14 -123
-31z"/>
<path d="M875 598 c-8 -21 9 -132 20 -132 29 3 47 108 23 132 -16 16 -37 15
-43 0z"/>
<path d="M1770 456 c-311 -87 -343 -96 -337 -102 7 -8 319 34 390 51 32 8 81
30 110 48 51 33 88 68 71 66 -5 0 -110 -29 -234 -63z"/>
<path d="M1914 292 c-20 -7 -104 -76 -104 -87 0 -3 12 -5 28 -5 39 1 102 32
136 69 l30 31 -35 -1 c-19 -1 -44 -4 -55 -7z"/>
<path d="M1492 225 c-106 -18 -196 -36 -200 -40 -10 -11 286 4 338 17 41 11
110 44 110 54 0 8 -61 1 -248 -31z"/>
</g>
</svg>
