<?xml version="1.0" standalone="no"?>
<!DOCTYPE svg PUBLIC "-//W3C//DTD SVG 20010904//EN"
 "http://www.w3.org/TR/2001/REC-SVG-20010904/DTD/svg10.dtd">
<svg version="1.0" xmlns="http://www.w3.org/2000/svg"
 width="499.000000pt" height="499.000000pt" viewBox="0 0 499.000000 499.000000"
 preserveAspectRatio="xMidYMid meet">

<g transform="translate(0.000000,499.000000) scale(0.100000,-0.100000)"
fill="#fff" stroke="none">
<path d="M4045 3951 c-132 -76 -418 -238 -635 -361 -790 -445 -941 -532 -971
-557 -42 -36 -76 -98 -93 -173 -82 -354 -275 -521 -558 -482 -242 33 -377 183
-378 419 0 61 -4 76 -23 99 -37 43 -47 25 -47 -84 1 -316 155 -490 472 -532
110 -15 211 4 327 62 164 82 277 229 347 448 54 171 56 176 138 215 39 19 341
157 671 307 330 151 625 290 656 311 135 89 222 192 300 353 51 105 54 114 42
113 -5 0 -116 -62 -248 -138z"/>
<path d="M3845 3382 l-219 -97 -42 -75 c-23 -41 -41 -76 -40 -77 1 -2 62 17
134 41 151 51 217 86 283 148 50 49 112 134 107 147 -2 5 -102 -34 -223 -87z"/>
<path d="M1670 3189 c-25 -5 -74 -23 -109 -40 -74 -37 -118 -35 -204 5 -28 14
-53 23 -56 21 -2 -3 4 -24 13 -48 49 -129 148 -189 374 -227 123 -22 192 -47
232 -85 l26 -25 45 48 c91 94 179 203 185 228 6 25 -1 113 -11 122 -2 3 -21
-12 -42 -32 -53 -51 -86 -55 -163 -16 -62 31 -172 61 -220 59 -14 -1 -45 -5
-70 -10z"/>
<path d="M3080 3047 c-241 -106 -326 -148 -328 -161 -3 -13 1 -17 9 -14 8 3
119 40 247 81 128 42 246 84 264 93 55 28 168 144 141 144 -4 0 -154 -65 -333
-143z"/>
<path d="M3615 3044 l-180 -65 -47 -63 c-27 -34 -48 -66 -48 -69 0 -11 77 3
161 29 89 28 178 83 235 146 36 38 71 89 62 88 -2 -1 -84 -30 -183 -66z"/>
<path d="M2926 2800 c-165 -59 -306 -112 -315 -118 -14 -10 -14 -11 1 -11 42
-2 482 110 516 131 85 51 145 110 110 107 -7 -1 -148 -50 -312 -109z"/>
<path d="M2103 2799 c-35 -28 -63 -55 -63 -59 0 -5 19 -24 43 -44 36 -30 43
-33 47 -18 3 9 13 32 23 50 12 21 17 49 15 78 l-3 44 -62 -51z"/>
<path d="M1598 2796 c12 -16 22 -37 22 -48 0 -11 25 -44 55 -73 l55 -53 47 55
c26 31 42 57 37 62 -5 5 -54 23 -109 41 -55 18 -107 35 -115 38 -9 4 -7 -4 8
-22z"/>
<path d="M3385 2750 c-33 -10 -86 -26 -119 -35 -50 -14 -68 -26 -117 -78 -32
-34 -59 -65 -59 -68 0 -14 176 22 224 45 58 29 77 45 124 99 53 62 46 67 -53
37z"/>
<path d="M1925 2736 c-16 -12 -17 -18 -7 -57 6 -24 13 -57 14 -74 l3 -30 23
36 c27 44 29 100 4 122 -16 14 -21 15 -37 3z"/>
<path d="M2765 2578 c-159 -44 -292 -82 -294 -84 -2 -2 -2 -6 0 -8 5 -5 269
28 362 45 73 13 161 56 201 98 17 17 28 31 25 30 -2 0 -134 -36 -294 -81z"/>
<path d="M2964 2433 c-12 -2 -46 -26 -75 -53 -48 -44 -51 -49 -30 -50 43 0
101 23 141 57 22 19 40 39 40 44 0 9 -36 10 -76 2z"/>
<path d="M2552 2364 c-193 -32 -229 -40 -220 -49 2 -3 76 -1 164 4 160 9 238
26 290 66 18 14 17 14 -11 13 -16 0 -117 -16 -223 -34z"/>
</g>
</svg>
